<?xml version="1.0" encoding="UTF-8"?>
<svg xmlns="http://www.w3.org/2000/svg" xmlns:xlink="http://www.w3.org/1999/xlink" viewBox="0 0 48 48" version="1.1" width="48px" height="48px">
<g id="surface1">
<path style=" fill:#01579B;" d="M 43 24 C 43 34.492188 34.492188 43 24 43 C 13.507813 43 5 34.492188 5 24 C 5 13.507813 13.507813 5 24 5 C 34.492188 5 43 13.507813 43 24 Z "/>
<path style=" fill:#0277BD;" d="M 34 20.800781 C 34 20.199219 34 17.898438 32.5 16.101563 C 32.398438 16 32.300781 15.800781 32.300781 15.699219 C 32.199219 15.601563 32.199219 15.5 32.101563 15.300781 L 31.898438 15 L 31.699219 14.699219 C 31.5 14.398438 31.398438 14.199219 31.398438 14.199219 C 31 13.601563 30.898438 12.800781 31.300781 12.101563 C 31.398438 11.898438 31.601563 11.699219 31.699219 11.5 C 31.601563 11.398438 31.5 11.300781 31.398438 11.300781 C 31.398438 11.300781 31.398438 11.300781 31.300781 11.300781 C 31 11.101563 30.699219 10.898438 30.5 10.699219 L 29.800781 10.199219 C 29.300781 9.898438 29 9.800781 29 9.699219 C 28.300781 9.300781 27.898438 8.601563 28 7.800781 C 28.101563 7 28.601563 6.300781 29.398438 6.101563 C 29.5 6.101563 29.699219 6 29.898438 6 C 29.898438 6 29.898438 6 29.800781 5.898438 C 28 5.300781 26 5 24 5 C 16.601563 5 10.101563 9.300781 7 15.5 C 7 15.699219 7 15.800781 7 16 C 7 23.199219 13.300781 29 21 29 C 26.898438 29 31.898438 25.601563 34 20.800781 Z "/>
<path style=" fill:#FFF176;" d="M 30 8 C 30 8 30.300781 7.898438 30.898438 7.898438 C 31.199219 7.898438 31.5 7.898438 31.898438 7.898438 C 32.300781 7.898438 32.699219 8 33.199219 8.101563 C 33.699219 8.199219 34.199219 8.398438 34.699219 8.601563 C 35.199219 8.800781 35.800781 9.101563 36.300781 9.5 C 36.800781 9.800781 37.300781 10.300781 37.800781 10.699219 C 38.300781 11.101563 38.699219 11.699219 39.101563 12.199219 C 39.398438 12.800781 39.800781 13.300781 40.101563 13.898438 C 40.398438 14.5 40.601563 15.101563 40.800781 15.699219 C 41 16.300781 41.101563 16.898438 41.199219 17.398438 C 41.300781 18 41.300781 18.5 41.300781 18.898438 C 41.300781 19.101563 41.300781 19.398438 41.300781 19.601563 C 41.300781 19.800781 41.300781 20 41.199219 20.199219 C 41.199219 20.601563 41.101563 20.898438 41.101563 21.199219 C 41.101563 21.699219 41 22 41 22 C 41 22 40.800781 21.699219 40.601563 21.199219 C 40.5 21 40.300781 20.699219 40.199219 20.300781 C 40.101563 20 39.898438 19.601563 39.699219 19.199219 C 39.5 18.800781 39.300781 18.398438 39.101563 17.898438 C 38.898438 17.5 38.601563 17 38.398438 16.5 C 38.199219 16 37.898438 15.601563 37.601563 15.101563 C 37.300781 14.601563 37 14.199219 36.699219 13.800781 C 36.398438 13.398438 36.101563 12.898438 35.699219 12.601563 C 35.300781 12.199219 35 11.800781 34.601563 11.5 C 34.300781 11.101563 33.898438 10.800781 33.5 10.5 C 33.101563 10.199219 32.800781 9.898438 32.398438 9.699219 C 32.101563 9.398438 31.699219 9.199219 31.398438 9 C 31.101563 8.800781 30.800781 8.601563 30.601563 8.5 C 30.300781 8.199219 30 8 30 8 Z "/>
<path style=" fill:#FDD835;" d="M 43.101563 17.601563 C 42.800781 15.398438 41.898438 13.398438 40.898438 12 C 40.398438 11.300781 39.898438 10.800781 39.601563 10.5 C 39.199219 10.199219 39 10 39 10 C 39 10 39 10.300781 39.101563 10.800781 C 39.199219 11.300781 39.199219 11.898438 39.300781 12.699219 C 39.398438 13.101563 39.398438 13.5 39.5 13.898438 C 39.101563 13.300781 38.601563 12.699219 38.101563 12.300781 C 37.601563 11.800781 37 11.5 36.699219 11.300781 C 36.199219 11.101563 36 11 36 11 C 36 11 36.101563 11.199219 36.199219 11.601563 C 36.300781 12 36.5 12.5 36.699219 13.199219 C 36.898438 13.898438 37.199219 14.800781 37.5 15.699219 C 36.898438 15 36.300781 14.398438 35.699219 14 C 35 13.601563 34.398438 13.300781 33.898438 13.199219 C 33.300781 13 33 13 33 13 C 33 13 33.199219 13.199219 33.398438 13.601563 C 33.5 13.800781 33.699219 14 33.800781 14.300781 C 34 14.601563 34.101563 14.898438 34.300781 15.199219 C 34.601563 15.800781 35 16.5 35.300781 17.300781 C 35.5 17.699219 35.601563 18.101563 35.800781 18.5 C 35.898438 18.898438 36.199219 19.300781 36.300781 19.800781 C 36.5 20.199219 36.601563 20.601563 36.800781 21.101563 C 36.898438 21.5 37.101563 21.898438 37.199219 22.398438 C 37.300781 22.800781 37.5 23.199219 37.601563 23.601563 C 37.699219 24 37.800781 24.398438 38 24.699219 C 38.300781 25.398438 38.5 26 38.699219 26.398438 C 38.898438 26.800781 39 27 39 27 C 39 27 39.101563 26.800781 39.300781 26.300781 C 39.398438 26.101563 39.5 25.800781 39.5 25.5 C 39.601563 25.199219 39.699219 24.800781 39.699219 24.398438 C 39.699219 24.101563 39.800781 23.800781 39.800781 23.5 C 39.898438 23.800781 40 24 40 24 C 40 24 40.101563 23.800781 40.300781 23.398438 C 40.398438 23.199219 40.5 23 40.601563 22.699219 C 40.601563 22.699219 40.601563 22.601563 40.601563 22.601563 C 40.601563 22.800781 40.601563 23.101563 40.699219 23.300781 C 40.699219 23.699219 40.800781 24 40.800781 24.300781 C 40.800781 24.601563 40.800781 24.898438 40.800781 25.199219 C 40.800781 25.699219 40.898438 26 40.898438 26 C 40.898438 26 41.101563 25.800781 41.398438 25.398438 C 41.5 25.199219 41.699219 25 41.898438 24.699219 C 42.101563 24.398438 42.199219 24.101563 42.398438 23.699219 C 42.601563 23.300781 42.699219 22.898438 42.800781 22.398438 C 42.898438 21.898438 43 21.398438 43.101563 20.898438 C 43.199219 20.398438 43.199219 19.800781 43.199219 19.300781 C 43.300781 18.699219 43.199219 18.101563 43.101563 17.601563 Z "/>
<path style=" fill:#FFB300;" d="M 44.101563 19.800781 C 44.101563 19.300781 44 19 44 19 C 44 19 43.800781 19.300781 43.5 19.699219 C 43.199219 20.199219 42.898438 20.800781 42.5 21.601563 C 42.199219 22.300781 41.800781 23.101563 41.398438 23.898438 C 41.398438 23.101563 41.398438 22.398438 41.300781 21.699219 C 41.199219 21.101563 41.101563 20.601563 41 20.101563 C 40.800781 19.601563 40.699219 19.101563 40.5 18.699219 C 40.199219 17.800781 39.800781 17.199219 39.5 16.699219 C 39.199219 16.199219 39 16 39 16 C 39 16 38.898438 17.199219 38.898438 19 C 38.898438 19.898438 38.800781 20.800781 38.699219 21.898438 C 38.699219 22.398438 38.601563 22.898438 38.601563 23.5 C 38.601563 24 38.5 24.601563 38.398438 25.101563 C 38.398438 25.199219 38.398438 25.398438 38.398438 25.5 C 38.300781 24.601563 38 23.699219 37.601563 23.101563 C 37.300781 22.398438 36.898438 21.898438 36.601563 21.601563 C 36.199219 21.101563 36 21 36 21 C 36 21 36 21.300781 36 21.699219 C 36 22.101563 36 22.699219 35.898438 23.398438 C 35.800781 24.699219 35.601563 26.398438 35.398438 28 C 35.300781 28.398438 35.199219 28.800781 35.199219 29.199219 C 35.101563 29.601563 35 30 35 30.398438 C 34.898438 30.800781 34.800781 31.199219 34.699219 31.5 C 34.601563 31.898438 34.5 32.199219 34.5 32.5 C 34.398438 32.800781 34.398438 33.199219 34.300781 33.398438 C 34.199219 33.699219 34.199219 33.898438 34.101563 34.199219 C 34 34.699219 34 35 34 35 C 34 35 34.199219 34.898438 34.601563 34.601563 C 35 34.300781 35.5 34 36 33.398438 C 36.199219 33.101563 36.5 32.800781 36.800781 32.398438 C 37 32 37.300781 31.699219 37.5 31.300781 C 37.5 31.601563 37.398438 31.898438 37.398438 32.199219 C 37.300781 32.5 37.300781 32.898438 37.199219 33.101563 C 37 33.699219 37 34 37 34 C 37.101563 33.898438 37.398438 34 37.699219 34.101563 C 37.699219 34.199219 37.601563 34.300781 37.601563 34.300781 C 37.5 34.601563 37.398438 34.898438 37.300781 35.199219 C 37.101563 35.699219 37 36 37 36 C 37 36 37.300781 35.898438 37.699219 35.601563 C 37.898438 35.398438 38.199219 35.300781 38.5 35 C 38.800781 34.800781 39.101563 34.5 39.398438 34.101563 C 39.699219 33.800781 40 33.398438 40.398438 33 C 40.699219 32.601563 41 32.101563 41.300781 31.601563 C 41.898438 30.601563 42.398438 29.5 42.800781 28.398438 C 43.199219 27.300781 43.601563 26.101563 43.800781 25 C 44 23.898438 44.101563 22.898438 44.199219 22 C 44.199219 21.101563 44.199219 20.398438 44.101563 19.800781 Z "/>
<path style=" fill:#FF9800;" d="M 41.398438 30.398438 C 41 30.601563 40.601563 31 40 31.398438 C 39.199219 32 38.300781 32.800781 37.398438 33.699219 C 37.5 33.398438 37.699219 33.101563 37.800781 32.800781 C 38.101563 31.898438 38.199219 31.101563 38.300781 30.398438 C 38.300781 29.699219 38.300781 29.101563 38.199219 28.699219 C 38.101563 28.199219 38 28 38 28 C 38 28 37.800781 28.199219 37.601563 28.5 C 37.398438 28.800781 37 29.300781 36.601563 29.800781 C 36.199219 30.300781 35.800781 31 35.398438 31.601563 C 35.300781 31.699219 35.300781 31.800781 35.199219 31.898438 C 35.398438 31.300781 35.398438 30.601563 35.398438 30 C 35.398438 29.199219 35.199219 28.398438 35 27.800781 C 34.800781 27.199219 34.5 26.699219 34.300781 26.398438 C 34.199219 26.199219 34 26 34 26 C 34 26 33.898438 26.199219 33.800781 26.601563 C 33.699219 26.898438 33.5 27.398438 33.300781 28 C 33.101563 28.5 33 29.101563 32.800781 29.800781 C 32.699219 30.101563 32.601563 30.398438 32.5 30.800781 C 32.398438 31.101563 32.300781 31.398438 32.199219 31.601563 C 30.300781 33.5 28 34 25.800781 34.101563 C 24.601563 34.101563 23.5 33.898438 22.5 33.601563 C 21 33.101563 19.601563 32.199219 18.300781 31 C 20.199219 31.199219 22 30.800781 23.5 30.101563 L 26 28.5 C 26.300781 28.398438 26.601563 28.398438 26.898438 28.5 C 27.5 28.398438 27.699219 28.101563 27.5 27.5 C 27.199219 27.101563 26.699219 26.699219 26.199219 26.398438 C 24.898438 25.699219 23.601563 25.800781 22.199219 26.699219 C 20.898438 27.398438 19.699219 27.300781 18.398438 26.601563 C 15.300781 25 16.5 20.898438 19.800781 23 C 20 22 19.699219 20.898438 19.101563 19.800781 C 16.199219 14.5 19.5 10.199219 20.601563 9.5 C 18.601563 9.699219 16.800781 10.601563 15.199219 12.101563 C 4.898438 10.898438 4 20.898438 4 21 L 5.199219 19.898438 C 4.800781 21 4.5 22.101563 4.398438 23.300781 C 4 27.199219 5.101563 31 7.699219 34.800781 C 11.699219 39.898438 18 43 24 43 C 30.800781 43 35.199219 40.5 38.101563 37.300781 C 38.300781 37.101563 38.5 36.898438 38.699219 36.699219 C 39.300781 36 39.898438 35.300781 40.398438 34.5 C 40.898438 33.800781 41.199219 33 41.5 32.300781 C 41.699219 31.601563 41.898438 31 42 30.601563 C 42 30.300781 42 30 42 30 C 42 30 41.800781 30.101563 41.398438 30.398438 Z "/>
<path style=" fill:#EF6C00;" d="M 12 28 C 11.800781 21 16.300781 21.601563 18.601563 22.398438 C 17 22.101563 16.300781 23.601563 17 25 C 16.699219 25 13.601563 24.699219 12 28 Z M 18.300781 30.898438 C 20.199219 31.101563 22 30.699219 23.5 30 L 26 28.398438 C 26.199219 28.300781 26.5 28.300781 26.699219 28.398438 C 23.800781 26.699219 20.699219 30.300781 13.898438 29.199219 C 15.601563 30.5 18.300781 30.898438 18.300781 30.898438 Z M 18.101563 14.5 C 17.898438 16 18.199219 17.800781 19.199219 19.699219 C 20.601563 18.898438 22 18 22 18 C 22 18 24 16 22 16 C 20.101563 16 18.800781 15.199219 18.101563 14.5 Z M 10.300781 12.398438 C 9.398438 11.601563 8 10 8 8 C 8 8 5.601563 11.898438 6.5 15 C 7.398438 13.898438 8.699219 13 10.300781 12.398438 Z "/>
<path style=" fill:#FFCC80;" d="M 19.199219 19.699219 C 20.601563 18.898438 22 18 22 18 C 22 18 22.199219 17.800781 22.398438 17.601563 L 22 17 L 18.199219 17 C 18.398438 17.898438 18.699219 18.800781 19.199219 19.699219 Z "/>
<path style=" fill:#5D4037;" d="M 22 16 C 21.699219 16 21.398438 16 21.101563 15.898438 L 21 16 C 21 16 21.800781 17.300781 22 18 C 22 18 24 16 22 16 Z "/>
</g>
</svg>
